<svg width="31" height="31" viewBox="0 0 31 31" fill="none" xmlns="http://www.w3.org/2000/svg">
<g opacity="0.4">
<path fill-rule="evenodd" clip-rule="evenodd" d="M9.01667 0H22.985C28.1333 0 31 2.67957 31 7.27097V22.8215C31 27.4882 28.1333 30.1075 22.985 30.1075H9.01667C3.95 30.1075 1 27.4882 1 22.8215V7.27097C1 2.67957 3.95 0 9.01667 0ZM9.46673 7.01505V7H14.4484C15.1667 7 15.7501 7.52688 15.7501 8.17269C15.7501 8.83656 15.1667 9.36344 14.4484 9.36344H9.46673C8.7484 9.36344 8.16673 8.83656 8.16673 8.18925C8.16673 7.54193 8.7484 7.01505 9.46673 7.01505ZM9.46673 16.1677H22.5334C23.2501 16.1677 23.8334 15.6409 23.8334 14.9936C23.8334 14.3462 23.2501 13.8179 22.5334 13.8179H9.46673C8.7484 13.8179 8.16673 14.3462 8.16673 14.9936C8.16673 15.6409 8.7484 16.1677 9.46673 16.1677ZM9.46667 23.0473H22.5333C23.1983 22.9871 23.7 22.4738 23.7 21.8731C23.7 21.2559 23.1983 20.7441 22.5333 20.6839H9.46667C8.96667 20.6387 8.48334 20.8495 8.21667 21.2409C7.95 21.6172 7.95 22.114 8.21667 22.5054C8.48334 22.8817 8.96667 23.1075 9.46667 23.0473Z" fill="white"/>
</g>
</svg>
