<svg width="209" height="47" viewBox="0 0 209 47" fill="none" xmlns="http://www.w3.org/2000/svg">
<path d="M30.608 16.3848C29.0596 16.3797 27.5252 16.6694 26.0928 17.2374C24.6605 17.8054 23.3581 18.6405 22.2604 19.695C21.1626 20.7495 20.291 22.0026 19.6953 23.3827C19.0997 24.7627 18.7917 26.2426 18.7891 27.7377V39.2076C18.7891 39.6732 18.9807 40.1198 19.3217 40.449C19.6627 40.7783 20.1251 40.9632 20.6074 40.9632H24.8501C25.3323 40.9632 25.7948 40.7783 26.1358 40.449C26.4768 40.1198 26.6684 39.6732 26.6684 39.2076V27.7377C26.668 27.206 26.7837 26.6801 27.0079 26.1944C27.2321 25.7087 27.5598 25.2741 27.9696 24.9189C28.3795 24.5637 28.8622 24.2958 29.3865 24.1328C29.9107 23.9699 30.4646 23.9154 31.0121 23.9729C31.994 24.0923 32.8964 24.5555 33.5481 25.2746C34.1998 25.9937 34.5555 26.9188 34.5477 27.8743V39.2076C34.5477 39.6732 34.7393 40.1198 35.0803 40.449C35.4213 40.7783 35.8838 40.9632 36.366 40.9632H40.6087C41.0909 40.9632 41.5534 40.7783 41.8944 40.449C42.2354 40.1198 42.427 39.6732 42.427 39.2076V27.7377C42.4243 26.2426 42.1164 24.7627 41.5208 23.3827C40.9251 22.0026 40.0535 20.7495 38.9557 19.695C37.858 18.6405 36.5556 17.8054 35.1232 17.2374C33.6909 16.6694 32.1565 16.3797 30.608 16.3848Z" fill="white"/>
<path d="M13.3342 18.1401H7.8793C6.87509 18.1401 6.061 18.9261 6.061 19.8957V39.2073C6.061 40.1769 6.87509 40.9629 7.8793 40.9629H13.3342C14.3384 40.9629 15.1525 40.1769 15.1525 39.2073V19.8957C15.1525 18.9261 14.3384 18.1401 13.3342 18.1401Z" fill="white"/>
<path d="M10.6068 14.6291C13.1173 14.6291 15.1525 12.6641 15.1525 10.2401C15.1525 7.8161 13.1173 5.85107 10.6068 5.85107C8.09621 5.85107 6.061 7.8161 6.061 10.2401C6.061 12.6641 8.09621 14.6291 10.6068 14.6291Z" fill="white"/>
<path d="M136.721 42.5653H129.893C129.441 42.5653 129.007 42.3855 128.687 42.0654C128.366 41.7453 128.187 41.3112 128.187 40.8585V30.2761H124.773C124.32 30.2761 123.886 30.0963 123.566 29.7762C123.246 29.4561 123.066 29.022 123.066 28.5693V22.4247C123.066 21.972 123.246 21.5379 123.566 21.2178C123.886 20.8977 124.32 20.7179 124.773 20.7179H128.187V17.8163C128.306 15.2156 129.451 12.7682 131.37 11.009C133.289 9.24988 135.826 8.32214 138.428 8.42867H143.548C144.001 8.42867 144.435 8.60849 144.755 8.92859C145.075 9.24868 145.255 9.68282 145.255 10.1355V16.2801C145.255 16.7328 145.075 17.1669 144.755 17.487C144.435 17.8071 144.001 17.9869 143.548 17.9869H138.428V20.7179H143.548C143.812 20.7159 144.072 20.7749 144.309 20.8904C144.546 21.0059 144.753 21.1747 144.914 21.3835C145.073 21.5955 145.18 21.8416 145.227 22.1023C145.275 22.363 145.261 22.6312 145.187 22.8855L143.48 29.0301C143.377 29.3993 143.152 29.723 142.842 29.9491C142.533 30.1751 142.156 30.2903 141.773 30.2761H138.428V40.8585C138.428 41.3112 138.248 41.7453 137.928 42.0654C137.608 42.3855 137.174 42.5653 136.721 42.5653ZM131.6 39.1517H135.014V28.5693C135.014 28.1166 135.194 27.6825 135.514 27.3624C135.834 27.0423 136.268 26.8625 136.721 26.8625H140.544L141.295 24.1315H136.721C136.268 24.1315 135.834 23.9517 135.514 23.6316C135.194 23.3115 135.014 22.8774 135.014 22.4247V17.8163C135.058 16.9408 135.437 16.1157 136.072 15.512C136.708 14.9083 137.551 14.5722 138.428 14.5733H141.841V11.8423H138.428C136.732 11.7391 135.065 12.3084 133.787 13.4267C132.509 14.5451 131.723 16.1223 131.6 17.8163V22.4247C131.6 22.8774 131.421 23.3115 131.1 23.6316C130.78 23.9517 130.346 24.1315 129.893 24.1315H126.48V26.8625H129.893C130.346 26.8625 130.78 27.0423 131.1 27.3624C131.421 27.6825 131.6 28.1166 131.6 28.5693V39.1517Z" fill="white"/>
<path d="M81.51 5.88621C76.5832 5.83615 71.838 7.74429 68.3174 11.1913C64.7968 14.6382 62.7889 19.342 62.7348 24.2688C62.7538 28.1624 64.0063 31.9498 66.3125 35.087C68.6186 38.2242 71.8597 40.5498 75.5702 41.7297C76.509 41.9004 76.8503 41.3371 76.8503 40.8422C76.8503 40.3472 76.8503 39.2548 76.8503 37.7187C71.6274 38.8281 70.518 35.2608 70.518 35.2608C70.1703 34.141 69.4311 33.1837 68.4357 32.564C66.7288 31.4375 68.5722 31.4546 68.5722 31.4546C69.1622 31.5334 69.7266 31.7449 70.2232 32.073C70.7199 32.4011 71.1357 32.8374 71.4397 33.3492C71.9694 34.2676 72.8385 34.9415 73.86 35.2256C74.8815 35.5097 75.9737 35.3814 76.9016 34.8682C76.997 33.9336 77.4202 33.0628 78.0963 32.4104C73.9317 31.9496 69.5622 30.3793 69.5622 23.3301C69.5249 21.4912 70.2043 19.71 71.4568 18.3632C70.8864 16.7845 70.9537 15.0456 71.6445 13.5158C71.6445 13.5158 73.2319 13.0208 76.765 15.3933C79.8405 14.5737 83.0771 14.5737 86.1526 15.3933C89.7369 13.0208 91.2731 13.5158 91.2731 13.5158C91.9639 15.0456 92.0312 16.7845 91.4608 18.3632C92.7423 19.6854 93.4586 21.4546 93.4578 23.2959C93.4578 30.3622 89.0542 31.9154 84.9237 32.3763C85.3759 32.8154 85.7253 33.3493 85.9467 33.9395C86.168 34.5297 86.2558 35.1617 86.2038 35.7899V40.8251C86.2038 40.8251 86.5452 41.9004 87.4839 41.7126C91.1839 40.5254 94.4141 38.1992 96.7131 35.0665C99.0121 31.9337 100.262 28.1546 100.285 24.2688C100.231 19.342 98.2232 14.6382 94.7026 11.1913C91.182 7.74429 86.4368 5.83615 81.51 5.88621Z" fill="white"/>
<path d="M181.827 39.9876C184.351 40.072 186.866 39.6497 189.224 38.7455C191.582 37.8414 193.735 36.4737 195.555 34.7234C197.375 32.9731 198.826 30.8756 199.822 28.555C200.818 26.2344 201.339 23.7377 201.353 21.2124C202.51 19.7811 203.369 18.133 203.879 16.365C203.918 16.2253 203.915 16.0776 203.871 15.9396C203.827 15.8016 203.744 15.6793 203.632 15.5873C203.52 15.4953 203.384 15.4376 203.24 15.4212C203.097 15.4047 202.951 15.4302 202.821 15.4945C202.216 15.7858 201.535 15.8799 200.873 15.7635C200.212 15.6472 199.604 15.3262 199.134 14.8459C198.535 14.1898 197.811 13.6606 197.003 13.2897C196.196 12.9188 195.322 12.7137 194.434 12.6867C193.546 12.6596 192.661 12.8111 191.833 13.1322C191.004 13.4532 190.248 13.9373 189.61 14.5558C188.737 15.4018 188.097 16.4594 187.753 17.6258C187.409 18.7922 187.373 20.0278 187.647 21.2124C181.93 21.5538 178.004 18.8399 174.863 15.119C174.769 15.0122 174.646 14.9351 174.508 14.8973C174.371 14.8594 174.225 14.8624 174.089 14.9058C173.954 14.9492 173.834 15.0313 173.744 15.1419C173.654 15.2525 173.598 15.3869 173.583 15.5287C172.985 18.8475 173.416 22.2699 174.82 25.3362C176.223 28.4026 178.532 30.9661 181.435 32.6823C179.488 34.9146 176.755 36.3088 173.805 36.5739C173.647 36.6001 173.501 36.6751 173.388 36.7883C173.275 36.9015 173.199 37.0474 173.173 37.2054C173.147 37.3634 173.171 37.5257 173.241 37.6695C173.311 37.8134 173.425 37.9316 173.566 38.0077C176.132 39.2901 178.958 39.9674 181.827 39.9876Z" fill="white"/>
</svg>
